<?xml version="1.0" standalone="no"?>
<!DOCTYPE svg PUBLIC "-//W3C//DTD SVG 20010904//EN"
 "http://www.w3.org/TR/2001/REC-SVG-20010904/DTD/svg10.dtd">
<svg version="1.0" xmlns="http://www.w3.org/2000/svg"
 width="1024.000000pt" height="1024.000000pt" viewBox="0 0 1024.000000 1024.000000"
 preserveAspectRatio="xMidYMid meet">
<metadata>
Created by potrace 1.11, written by Peter Selinger 2001-2013
</metadata>
<g transform="translate(0.000000,1024.000000) scale(0.100000,-0.100000)"
fill="#000000" stroke="none">
<path d="M0 9832 l0 -408 35 -122 c49 -171 72 -212 119 -212 7 0 44 27 81 60
96 85 103 86 187 18 20 -15 40 -21 75 -20 85 2 116 -13 205 -96 46 -43 111
-99 144 -125 78 -59 107 -94 146 -173 38 -79 66 -105 159 -152 67 -34 74 -40
77 -70 5 -55 -58 -155 -308 -492 -168 -226 -256 -364 -408 -637 -148 -265
-173 -325 -223 -533 -69 -283 -117 -589 -154 -980 -8 -80 -19 -179 -24 -220
-14 -105 -13 -277 3 -545 8 -126 17 -300 21 -385 13 -314 42 -475 109 -608 50
-99 79 -185 136 -410 61 -237 68 -276 49 -287 -37 -23 112 -402 261 -665 26
-47 51 -95 55 -107 9 -31 -15 -30 -45 2 -36 38 -54 33 -46 -13 19 -123 151
-314 510 -742 193 -230 385 -438 493 -537 193 -176 235 -221 346 -363 77 -99
138 -166 192 -210 43 -36 112 -95 153 -133 160 -147 420 -229 941 -297 207
-27 271 -40 271 -55 0 -3 -19 -14 -42 -26 l-42 -21 25 -13 c98 -50 984 -186
1209 -185 59 1 63 2 46 15 -32 24 -134 54 -310 89 -156 32 -206 51 -206 78 0
33 598 -32 718 -78 48 -19 82 -24 148 -24 71 0 86 -3 91 -17 9 -26 23 -33 67
-33 30 0 47 -8 77 -35 l39 -35 143 0 c196 0 275 21 577 150 388 167 495 224
602 317 56 50 111 86 303 199 292 172 607 405 788 585 122 121 149 143 222
179 74 36 90 48 129 103 97 136 226 417 226 492 0 54 -13 52 -36 -6 -39 -96
-52 26 -20 181 13 63 22 120 19 127 -3 6 0 49 6 95 9 80 37 180 87 318 13 36
24 74 24 85 1 20 1 20 16 0 12 -16 16 -17 23 -6 16 26 24 206 11 246 -9 28 -9
39 1 51 9 11 9 18 1 26 -18 18 -26 2 -23 -47 3 -56 -12 -58 -34 -3 -15 40 -22
82 -45 317 -6 57 -18 117 -27 134 -8 17 -26 68 -38 114 -13 46 -30 94 -38 107
-26 40 -59 166 -52 202 6 34 -13 96 -34 108 -6 4 -27 2 -46 -4 l-35 -12 0 -73
c0 -41 -4 -76 -9 -79 -9 -6 -71 132 -71 158 0 8 -4 17 -9 21 -5 3 -24 48 -41
100 -17 52 -36 98 -42 101 -6 4 -19 25 -30 48 -11 22 -37 73 -58 111 -21 39
-62 115 -90 170 -56 110 -89 161 -123 187 -32 25 -47 22 -47 -9 l0 -26 -26 24
c-14 13 -30 34 -34 45 -8 19 -196 134 -220 134 -5 0 -12 11 -16 24 -17 70
-498 469 -604 501 -14 4 -32 13 -40 19 -14 12 -34 18 -139 46 -67 18 -75 -3
-12 -31 55 -26 68 -45 24 -35 -53 12 -132 19 -147 13 -23 -9 -8 -37 20 -37 26
0 163 -45 238 -79 30 -13 50 -29 56 -46 5 -14 21 -30 35 -37 34 -15 31 -26 -9
-33 -48 -10 -71 -3 -71 20 0 19 -7 20 -138 20 -90 0 -140 4 -145 11 -4 6 -24
17 -45 23 -43 14 -67 3 -67 -31 0 -18 -1 -18 -29 3 -25 19 -33 20 -64 10 -19
-7 -97 -14 -173 -16 -77 -2 -163 -7 -191 -11 -37 -4 -53 -3 -53 5 0 14 -66 15
-75 1 -8 -12 -80 -2 -117 16 -35 18 -52 18 -44 -1 9 -24 -16 -27 -60 -9 -21
10 -86 27 -144 39 -58 11 -104 25 -104 30 1 6 12 15 25 22 17 9 20 13 9 17
-78 27 -108 34 -126 30 -14 -4 -23 0 -27 10 -4 11 -19 16 -45 16 -23 0 -45 6
-52 15 -7 8 -20 15 -29 15 -18 1 -60 29 -45 31 80 9 512 -81 689 -144 155 -55
268 -66 329 -31 37 21 38 22 16 34 -12 7 -37 9 -59 5 -45 -7 -75 4 -120 44
-29 26 -43 31 -85 31 -28 0 -103 14 -166 31 -63 16 -162 40 -220 52 -122 25
-134 31 -126 61 5 19 1 22 -37 22 -60 1 -239 14 -257 19 -8 2 -71 7 -140 10
-69 3 -141 8 -160 11 -75 10 -85 9 -85 -6 0 -11 26 -19 110 -31 65 -9 102 -18
90 -22 -49 -15 -96 -17 -175 -8 -84 9 -86 9 -199 -30 -106 -37 -150 -43 -167
-26 -4 4 -23 4 -42 1 -22 -4 -37 -2 -42 6 -5 9 -13 9 -27 2 -23 -13 -96 -5
-140 14 -17 8 -35 14 -41 14 -5 0 -15 6 -22 14 -13 16 -32 12 -72 -17 -35 -26
-28 -51 9 -32 36 19 52 7 22 -16 -13 -10 -20 -21 -16 -25 14 -14 112 -47 162
-54 28 -4 58 -10 67 -14 10 -5 27 -1 42 9 25 17 26 16 36 -9 12 -31 45 -46
105 -46 24 0 47 -4 50 -10 3 -5 19 -10 34 -10 16 0 46 -7 66 -16 29 -12 35
-18 24 -25 -22 -14 -127 -11 -152 5 -12 8 -55 19 -95 25 -40 5 -79 14 -85 20
-7 5 -39 16 -72 24 -65 16 -151 45 -175 58 -8 5 -22 12 -30 15 -8 3 -23 10
-32 15 -10 5 -24 9 -31 9 -20 0 -51 36 -37 45 5 3 8 11 5 16 -9 14 -37 11 -57
-7 -16 -16 -18 -16 -24 0 -3 9 -15 16 -25 16 -12 0 -19 7 -19 19 0 32 24 43
78 35 78 -10 78 33 -1 51 -15 4 -32 15 -37 26 -6 11 -21 19 -35 19 -14 0 -25
5 -25 11 0 14 -42 7 -47 -8 -3 -6 8 -13 23 -15 15 -2 29 -8 31 -14 2 -7 -8 -9
-26 -6 -22 3 -32 -1 -40 -17 -7 -12 -16 -21 -22 -21 -5 0 -39 20 -76 45 -36
25 -69 45 -75 45 -13 0 -68 42 -68 52 0 4 6 8 14 8 26 0 30 23 6 42 -29 23
-40 23 -40 -3 0 -16 -4 -19 -22 -13 -24 7 -55 29 -74 53 -9 12 -13 12 -21 -4
-14 -25 -35 -9 -27 20 4 17 -1 32 -20 52 l-26 28 0 -28 c0 -44 -18 -31 -26 18
-3 25 -11 45 -16 45 -11 0 -108 100 -108 112 0 13 -44 50 -71 60 -30 10 -50
47 -42 76 2 11 0 23 -6 26 -7 5 -11 -3 -11 -20 l0 -27 -25 23 c-14 13 -41 55
-61 94 -19 39 -46 82 -60 96 -13 15 -31 51 -40 80 -20 69 -29 80 -65 80 -33 0
-39 10 -64 105 -10 39 -26 79 -36 91 -14 15 -19 36 -19 81 0 45 -5 67 -19 84
-16 20 -21 21 -35 10 -9 -7 -16 -20 -16 -27 0 -25 -16 -15 -34 22 -15 32 -15
39 -3 58 9 13 11 28 6 41 -4 11 -5 46 -2 78 5 48 2 61 -13 78 -20 22 -22 73
-13 261 4 79 6 81 46 45 40 -36 40 -12 -2 103 -12 31 -15 60 -11 95 8 65 53
219 66 223 6 2 10 9 10 15 0 7 9 29 20 49 10 20 21 55 24 78 3 23 10 48 16 55
6 7 12 30 14 50 2 21 7 40 12 44 15 11 49 64 68 108 l18 42 -35 30 c-19 17
-37 42 -39 55 -6 30 26 102 83 185 24 35 52 75 61 90 10 14 18 43 18 64 0 25
7 43 20 54 11 10 20 27 20 39 0 35 152 184 280 273 63 44 156 109 205 144 50
36 115 77 145 92 107 53 226 129 281 179 124 112 261 189 538 302 47 19 116
52 153 75 65 38 78 42 216 60 81 10 163 23 182 29 44 13 187 13 195 1 3 -5 1
-12 -5 -16 -42 -26 36 -34 110 -11 132 40 620 46 950 11 80 -9 262 -20 405
-25 311 -11 435 -26 717 -85 312 -65 464 -122 538 -200 19 -20 62 -55 95 -78
72 -49 192 -162 211 -199 10 -20 52 -46 154 -99 77 -39 175 -96 218 -128 42
-31 120 -86 172 -121 74 -50 160 -129 391 -360 163 -162 324 -331 359 -375
154 -195 292 -433 360 -620 50 -139 90 -208 217 -370 154 -198 239 -329 326
-505 96 -190 122 -272 122 -375 0 -70 -3 -85 -27 -121 -62 -96 -60 -139 27
-529 l54 -240 0 2283 1 2282 -5120 0 -5120 0 0 -408z m2426 -1280 c-8 -9 -19
-13 -22 -9 -10 9 16 38 28 31 6 -4 4 -13 -6 -22z m34 -147 c0 -8 -4 -15 -10
-15 -5 0 -10 7 -10 15 0 8 5 15 10 15 6 0 10 -7 10 -15z m-179 -278 c-8 -8
-11 -4 -11 14 0 33 14 47 18 19 2 -12 -1 -27 -7 -33z m-36 -158 c-15 -74 -31
-138 -36 -143 -11 -12 -11 -2 1 100 5 51 17 94 29 115 12 19 21 43 21 53 0 11
3 17 6 14 3 -3 -7 -66 -21 -139z m-35 -200 c0 -10 -4 -19 -10 -19 -5 0 -10 12
-10 26 0 14 4 23 10 19 6 -3 10 -15 10 -26z m1370 -2059 c0 -5 -4 -10 -10 -10
-5 0 -10 5 -10 10 0 6 5 10 10 10 6 0 10 -4 10 -10z m-70 -30 c0 -5 -2 -10 -4
-10 -3 0 -8 5 -11 10 -3 6 -1 10 4 10 6 0 11 -4 11 -10z m1287 -16 c-3 -3 -12
-4 -19 -1 -8 3 -5 6 6 6 11 1 17 -2 13 -5z m-247 -74 c0 -5 -8 -10 -17 -10
-15 0 -16 2 -3 10 19 12 20 12 20 0z m-74 -12 c19 -19 -56 -27 -200 -20 -48 2
-38 19 14 24 56 7 178 4 186 -4z m164 -4 c0 -8 -4 -12 -10 -9 -5 3 -10 10 -10
16 0 5 5 9 10 9 6 0 10 -7 10 -16z m-709 -10 c10 -13 10 -17 -2 -25 -9 -6 -18
-3 -26 8 -22 29 4 46 28 17z m-351 -4 c0 -5 -4 -10 -9 -10 -6 0 -13 5 -16 10
-3 6 1 10 9 10 9 0 16 -4 16 -10z m657 -66 c-9 -9 -28 6 -21 18 4 6 10 6 17
-1 6 -6 8 -13 4 -17z m506 7 c20 -2 -2 -26 -33 -36 -35 -12 -53 -35 -26 -35
39 0 116 -23 116 -35 0 -20 -21 -24 -76 -14 -27 4 -78 13 -114 19 -77 14 -100
14 -160 5 -38 -6 -48 -4 -64 14 -11 12 -24 21 -30 21 -6 0 -22 9 -36 20 -14
11 -33 20 -42 20 -19 0 -23 11 -11 24 6 5 393 3 476 -3z m1853 -180 c5 -5 18
-11 29 -14 16 -4 -21 -3 -78 2 -5 1 -5 6 -2 11 8 12 38 13 51 1z m-629 -47
c-3 -3 -12 -4 -19 -1 -8 3 -5 6 6 6 11 1 17 -2 13 -5z m700 -1020 c29 -14 68
-44 88 -67 34 -40 66 -119 64 -161 0 -23 1 -26 -37 67 -8 21 -20 40 -25 44 -5
3 -2 -8 6 -24 24 -46 32 -100 14 -100 -9 0 -18 13 -21 29 -13 67 -108 159
-149 145 -7 -2 4 -11 23 -19 46 -20 76 -54 89 -103 13 -48 13 -55 3 -55 -5 0
-16 17 -25 39 -9 21 -26 46 -36 55 -19 18 -81 29 -81 15 0 -7 49 -24 62 -21
11 2 28 -24 38 -57 11 -40 -4 -40 -20 -1 -7 17 -22 36 -34 42 -20 10 -20 10
-5 -8 16 -18 32 -64 23 -64 -3 0 -16 12 -30 28 -23 24 -24 25 -10 2 9 -13 16
-28 16 -32 0 -11 -34 -10 -45 1 -6 4 -22 11 -36 15 -26 6 -28 2 -98 -170 -39
-96 -91 -242 -116 -324 -62 -205 -107 -321 -218 -560 -151 -326 -190 -455
-276 -910 -56 -304 -66 -370 -54 -370 12 0 32 33 93 154 54 107 89 151 71 88
-14 -46 -114 -253 -153 -312 -45 -70 -291 -324 -308 -318 -29 9 -34 36 -23
115 22 147 168 647 224 769 21 45 29 74 24 91 -10 41 -32 10 -61 -86 -14 -47
-45 -144 -69 -216 -61 -185 -193 -632 -201 -681 -6 -41 -5 -42 25 -49 17 -4
31 -12 31 -19 0 -6 -21 -33 -46 -59 -30 -29 -44 -52 -41 -62 4 -8 2 -15 -2
-15 -5 0 -11 6 -14 13 -2 6 -7 9 -11 6 -4 -3 -2 -18 3 -33 7 -18 7 -26 0 -26
-6 0 -13 9 -16 20 -7 26 -13 25 -56 -7 -19 -16 -43 -33 -52 -38 -17 -10 -16
-13 4 -54 12 -24 21 -45 19 -46 -8 -8 -26 12 -43 45 -10 19 -26 41 -36 48 -11
7 -19 25 -19 40 0 15 -19 61 -41 102 -22 41 -58 115 -80 163 -22 49 -67 137
-101 195 -122 211 -174 343 -312 784 -72 231 -242 556 -473 909 -35 54 -67 99
-70 99 -13 0 7 -118 26 -161 23 -51 46 -147 37 -156 -10 -10 -55 108 -92 238
-33 121 -36 139 -40 313 -4 169 -2 186 15 207 l19 23 51 -54 c28 -30 79 -100
112 -155 92 -152 224 -420 254 -515 35 -106 50 -136 76 -151 20 -10 21 -9 15
17 -4 16 -29 76 -56 134 -26 58 -65 143 -85 190 -75 170 -244 486 -319 597
-22 31 -22 32 -55 16 -28 -14 -34 -14 -42 -2 -13 21 -11 73 7 173 16 95 36
146 57 146 40 0 274 -313 374 -500 81 -152 328 -690 391 -850 77 -198 336
-962 397 -1170 18 -63 36 -108 38 -100 18 52 196 617 227 720 50 162 57 182
193 525 106 268 216 526 315 735 55 116 343 616 382 663 40 48 70 67 128 83
61 17 134 9 199 -22z m-3812 -235 c11 -17 -1 -21 -15 -4 -8 9 -8 15 -2 15 6 0
14 -5 17 -11z m56 -52 c-12 -12 -31 0 -31 19 0 12 3 12 20 2 11 -7 16 -16 11
-21z m5556 -969 c-3 -7 -5 -2 -5 12 0 14 2 19 5 13 2 -7 2 -19 0 -25z m-3362
-349 c11 -17 -1 -21 -15 -4 -8 9 -8 15 -2 15 6 0 14 -5 17 -11z m132 -101 c15
-17 15 -18 -3 -18 -22 0 -104 71 -104 89 0 13 78 -39 107 -71z m-3615 -5 c23
-26 43 -63 33 -63 -7 0 -55 53 -66 73 -15 26 4 20 33 -10z m1525 -1230 c-9 -8
-48 8 -42 18 4 5 14 5 26 -2 12 -6 18 -13 16 -16z m94 -40 c21 -16 39 -31 39
-35 0 -14 -58 14 -81 38 -31 33 -7 31 42 -3z"/>
<path d="M6445 4251 c-22 -10 -55 -30 -72 -45 -43 -36 -243 -369 -230 -382 5
-5 37 45 135 211 38 66 82 133 96 148 33 35 104 67 170 77 l51 8 -55 1 c-34 0
-70 -6 -95 -18z"/>
<path d="M6459 4209 c-13 -11 -18 -18 -11 -14 7 3 40 12 75 20 l62 13 -51 1
c-39 1 -58 -4 -75 -20z"/>
<path d="M6620 4210 c8 -5 20 -10 25 -10 6 0 3 5 -5 10 -8 5 -19 10 -25 10 -5
0 -3 -5 5 -10z"/>
<path d="M6700 4217 c0 -2 15 -16 33 -33 l32 -29 -29 33 c-28 30 -36 37 -36
29z"/>
<path d="M6383 4158 c-28 -31 -209 -345 -189 -329 27 23 18 2 -44 -104 -123
-212 -373 -745 -356 -762 1 -2 63 124 136 280 179 379 255 529 297 584 20 26
62 97 95 157 33 61 67 119 76 129 9 10 12 18 7 17 -23 -5 -26 2 -11 25 20 31
16 32 -11 3z"/>
<path d="M6605 4150 c3 -4 14 -10 25 -13 11 -3 18 -2 15 3 -3 4 -14 10 -25 13
-11 3 -18 2 -15 -3z"/>
<path d="M6523 4131 c-23 -4 -52 -16 -63 -26 -18 -16 -240 -442 -240 -460 0
-3 5 -3 11 1 8 5 10 -3 7 -25 -2 -17 -3 -31 -1 -31 4 0 78 157 165 350 34 74
68 143 76 152 8 10 30 20 48 24 19 3 37 10 40 15 3 5 4 8 2 8 -2 -1 -22 -5
-45 -8z"/>
<path d="M4890 2285 c0 -3 53 -173 119 -378 65 -206 124 -400 131 -433 6 -32
16 -77 22 -99 l11 -40 10 32 c11 37 0 134 -13 112 -11 -17 -15 -13 -27 36 -64
248 -253 825 -253 770z"/>
<path d="M4991 1820 c0 -8 4 -24 9 -35 5 -13 9 -14 9 -5 0 8 -4 24 -9 35 -5
13 -9 14 -9 5z"/>
<path d="M5013 1723 c9 -81 38 -187 89 -327 44 -123 54 -143 62 -125 8 16 -7
73 -68 255 -43 129 -80 234 -83 234 -3 0 -3 -17 0 -37z"/>
<path d="M5201 1494 c0 -11 3 -14 6 -6 3 7 2 16 -1 19 -3 4 -6 -2 -5 -13z"/>
<path d="M5116 1137 c3 -10 9 -15 12 -12 3 3 0 11 -7 18 -10 9 -11 8 -5 -6z"/>
<path d="M5498 9594 c-22 -7 -23 -27 -3 -44 27 -22 16 -37 -68 -93 -113 -75
-310 -249 -378 -333 -31 -38 -107 -136 -169 -219 -62 -82 -130 -170 -150 -195
-77 -92 -184 -267 -285 -463 -112 -217 -129 -246 -141 -235 -16 17 30 136 90
232 35 56 100 161 145 234 197 322 428 626 647 851 90 93 164 174 164 180 0
15 -37 23 -73 16 -17 -4 -59 -20 -93 -35 -74 -33 -378 -208 -455 -262 -55 -38
-268 -262 -371 -390 -52 -64 -158 -221 -158 -233 0 -16 30 18 162 183 138 172
240 282 260 282 6 0 2 -12 -8 -27 -93 -141 -173 -284 -269 -478 -160 -324
-253 -567 -319 -830 -54 -217 -61 -269 -60 -480 0 -233 16 -320 86 -465 33
-70 56 -100 132 -175 72 -72 110 -100 181 -137 187 -96 371 -134 605 -124 80
3 177 12 215 21 39 9 153 29 255 45 202 32 342 61 407 84 23 8 63 18 90 22
114 16 533 138 520 150 -6 6 -116 -22 -348 -87 -96 -27 -179 -49 -184 -49 -24
0 19 20 95 45 47 16 80 30 73 32 -6 2 -94 -14 -195 -37 -269 -60 -405 -80
-573 -85 -82 -3 -143 -2 -135 1 8 3 22 8 30 11 12 4 11 7 -5 13 -25 9 30 16
190 25 118 7 245 24 381 51 100 20 105 31 7 16 -37 -6 -113 -16 -168 -22 -55
-6 -152 -17 -215 -25 -120 -16 -270 -18 -355 -6 -38 5 -10 8 115 13 107 4 248
19 400 42 129 19 277 40 328 46 90 11 196 37 159 39 -10 1 -129 -17 -265 -38
-284 -46 -301 -47 -402 -38 -41 4 -169 9 -285 12 -238 6 -354 22 -480 64 -114
39 -184 82 -251 154 -76 82 -67 88 14 8 82 -81 157 -122 287 -156 168 -44 251
-53 495 -59 192 -4 227 -3 190 6 -42 11 -33 13 120 19 289 12 694 73 770 116
l25 14 -30 -6 c-155 -27 -256 -31 -143 -6 43 10 81 21 85 24 13 14 -60 6 -397
-44 -324 -48 -357 -51 -545 -51 -689 -1 -921 139 -902 542 13 283 227 813 490
1218 69 105 258 350 369 476 157 178 453 426 509 426 11 0 22 -7 26 -15 6 -16
53 -45 73 -45 20 0 42 71 36 114 -17 103 -98 156 -244 162 -48 1 -95 1 -104
-2z m515 -2831 c-7 -2 -21 -2 -30 0 -10 3 -4 5 12 5 17 0 24 -2 18 -5z m-463
-53 c-25 -4 -83 -10 -130 -13 l-85 -5 90 12 c50 8 108 13 130 13 l40 0 -45 -7z
m-392 -227 c-10 -2 -26 -2 -35 0 -10 3 -2 5 17 5 19 0 27 -2 18 -5z"/>
<path d="M3511 8421 c-10 -7 0 -18 43 -46 31 -21 60 -35 64 -31 4 5 -4 15 -17
25 -13 9 -34 26 -48 39 -28 25 -24 24 -42 13z"/>
<path d="M3440 8275 c0 -8 4 -15 10 -15 5 0 7 7 4 15 -4 8 -8 15 -10 15 -2 0
-4 -7 -4 -15z"/>
<path d="M3470 8250 c0 -5 5 -10 11 -10 5 0 7 5 4 10 -3 6 -8 10 -11 10 -2 0
-4 -4 -4 -10z"/>
<path d="M3580 8200 c0 -5 9 -10 20 -10 11 0 20 5 20 10 0 6 -9 10 -20 10 -11
0 -20 -4 -20 -10z"/>
<path d="M5898 6623 c7 -3 16 -2 19 1 4 3 -2 6 -13 5 -11 0 -14 -3 -6 -6z"/>
<path d="M6305 5884 c11 -4 25 -10 30 -14 6 -4 35 -13 65 -20 30 -7 78 -24
108 -37 55 -24 83 -23 61 3 -6 8 -21 14 -34 14 -12 0 -25 3 -29 7 -17 17 -106
44 -161 48 -33 2 -51 2 -40 -1z"/>
<path d="M4040 5816 c28 -15 160 -29 160 -18 0 16 -58 31 -120 31 -60 0 -63
-1 -40 -13z"/>
<path d="M3380 5791 c0 -15 37 -41 58 -41 28 0 28 14 0 27 -37 18 -58 23 -58
14z"/>
<path d="M6590 5790 c0 -7 82 -50 96 -50 15 0 -2 22 -30 39 -35 22 -66 27 -66
11z"/>
<path d="M4270 5761 c0 -12 37 -24 50 -16 20 12 10 25 -20 25 -16 0 -30 -4
-30 -9z"/>
<path d="M4370 5740 c-21 -13 -3 -26 47 -34 51 -7 64 8 24 29 -34 17 -50 19
-71 5z"/>
<path d="M3700 5670 c0 -5 9 -10 20 -10 11 0 20 5 20 10 0 6 -9 10 -20 10 -11
0 -20 -4 -20 -10z"/>
<path d="M5447 5668 c-22 -8 -26 -13 -16 -24 6 -8 18 -14 26 -14 8 0 27 -6 41
-14 36 -19 207 -49 233 -41 11 4 26 1 34 -5 11 -9 23 -9 46 -1 41 14 39 14 39
-7 0 -14 8 -18 36 -19 62 -2 104 -13 104 -28 0 -23 30 -18 74 13 37 25 38 27
16 30 -14 2 -27 -3 -32 -12 -12 -21 -53 -22 -44 -1 3 8 9 22 12 30 4 11 -1 14
-23 14 -15 0 -55 2 -88 5 -74 8 -73 8 -112 0 -24 -5 -39 0 -65 19 -18 13 -58
30 -88 36 -30 7 -74 16 -98 22 -50 11 -58 11 -95 -3z"/>
<path d="M3925 5659 c-10 -15 0 -22 48 -34 47 -11 157 -9 157 4 0 8 -147 41
-182 41 -9 0 -20 -5 -23 -11z"/>
<path d="M5370 5650 c-12 -8 -11 -10 8 -10 12 0 22 5 22 10 0 13 -11 13 -30 0z"/>
<path d="M6826 5581 c-6 -10 6 -20 48 -41 17 -8 59 -36 95 -62 36 -27 71 -48
79 -48 7 0 31 -17 55 -38 23 -21 56 -48 73 -60 28 -19 33 -20 44 -6 7 8 19 13
27 10 7 -3 13 -1 13 4 0 15 -34 46 -68 61 -17 7 -35 23 -40 34 -5 11 -22 27
-38 35 -16 8 -39 23 -52 34 -18 16 -25 18 -31 8 -6 -10 -17 -9 -49 8 -22 12
-46 28 -53 36 -6 8 -27 14 -45 14 -19 0 -34 5 -34 10 0 12 -17 13 -24 1z"/>
<path d="M6095 5510 c-8 -13 15 -13 35 0 12 8 11 10 -7 10 -12 0 -25 -4 -28
-10z"/>
<path d="M6870 5460 c0 -5 7 -10 15 -10 8 0 15 5 15 10 0 6 -7 10 -15 10 -8 0
-15 -4 -15 -10z"/>
<path d="M6932 5428 c7 -19 38 -22 38 -4 0 10 -9 16 -21 16 -12 0 -19 -5 -17
-12z"/>
<path d="M6990 5391 c5 -11 18 -22 29 -26 10 -3 26 -14 36 -25 10 -11 25 -20
33 -20 12 0 12 4 -3 20 -10 11 -22 20 -27 20 -5 0 -21 11 -36 25 -32 30 -47
32 -32 6z"/>
<path d="M6170 5390 c0 -5 7 -10 15 -10 8 0 15 5 15 10 0 6 -7 10 -15 10 -8 0
-15 -4 -15 -10z"/>
<path d="M7270 5300 c0 -13 60 -80 72 -80 17 0 7 26 -19 51 -37 33 -53 43 -53
29z"/>
<path d="M10197 4188 c-21 -112 -42 -243 -48 -293 -5 -49 -17 -121 -25 -160
-8 -38 -28 -132 -44 -208 -16 -76 -36 -161 -45 -190 -20 -60 -183 -392 -216
-439 -22 -31 -58 -94 -169 -298 -31 -58 -101 -173 -156 -257 -54 -84 -124
-191 -154 -239 -30 -48 -89 -125 -130 -172 -215 -245 -408 -493 -478 -616 -92
-159 -146 -348 -122 -421 23 -70 68 -71 260 -10 144 46 200 54 245 33 36 -16
57 -57 95 -177 53 -166 125 -255 295 -366 174 -114 309 -165 381 -146 47 13
67 32 83 82 27 85 94 102 209 56 l62 -26 0 2025 c0 1113 -1 2024 -3 2024 -2 0
-20 -91 -40 -202z"/>
<path d="M8145 4202 c-7 -41 8 -92 26 -92 8 0 10 12 5 38 -3 20 -6 49 -6 65 0
40 -17 33 -25 -11z"/>
<path d="M8407 3629 c-4 -13 -6 -35 -6 -49 1 -23 2 -23 15 8 9 21 11 39 6 49
-8 13 -10 11 -15 -8z"/>
<path d="M8521 2615 c-34 -59 -43 -107 -16 -85 8 7 22 38 32 69 10 31 22 59
28 63 6 5 6 8 -2 8 -6 0 -25 -25 -42 -55z"/>
<path d="M5033 44 c-21 -9 -14 -33 11 -40 41 -10 71 -1 71 21 0 16 -7 20 -35
22 -19 1 -41 0 -47 -3z"/>
</g>
</svg>
